HIERARCHY
ROOT root
{
	OFFSET 0.000000 0.000000 0.000000
	CHANNELS 6 Xposition Yposition Zposition Zrotation Yrotation Xrotation
	JOINT lhip
	{
		OFFSET 0.058581 -0.082280 -0.017664
		CHANNELS 3 Zrotation Yrotation Xrotation
		JOINT lknee
		{
			OFFSET 0.043451 -0.386469 0.008037
			CHANNELS 3 Zrotation Yrotation Xrotation
			JOINT lankle
			{
				OFFSET -0.014790 -0.426874 -0.037428
				CHANNELS 3 Zrotation Yrotation Xrotation
				JOINT ltoe
				{
					OFFSET 0.041054 -0.060286 0.122042
					CHANNELS 3 Zrotation Yrotation Xrotation
					End Site
					{
						OFFSET 0.000000 0.000000 0.000000
					}
				}
			}
		}
	}
	JOINT rhip
	{
		OFFSET -0.060310 -0.090513 -0.013543
		CHANNELS 3 Zrotation Yrotation Xrotation
		JOINT rknee
		{
			OFFSET -0.043257 -0.383688 -0.004843
			CHANNELS 3 Zrotation Yrotation Xrotation
			JOINT rankle
			{
				OFFSET 0.019056 -0.420046 -0.034562
				CHANNELS 3 Zrotation Yrotation Xrotation
				JOINT rtoe
				{
					OFFSET -0.034840 -0.062106 0.130323
					CHANNELS 3 Zrotation Yrotation Xrotation
					End Site
					{
						OFFSET 0.000000 0.000000 0.000000
					}
				}
			}
		}
	}
	JOINT lowerback
	{
		OFFSET 0.004439 0.124404 -0.038385
		CHANNELS 3 Zrotation Yrotation Xrotation
		JOINT upperback
		{
			OFFSET 0.004488 0.137956 0.026820
			CHANNELS 3 Zrotation Yrotation Xrotation
			JOINT chest
			{
				OFFSET -0.002265 0.056032 0.002855
				CHANNELS 3 Zrotation Yrotation Xrotation
				JOINT lowerneck
				{
					OFFSET -0.013390 0.211636 -0.033468
					CHANNELS 3 Zrotation Yrotation Xrotation
					JOINT upperneck
					{
						OFFSET 0.010113 0.088937 0.050410
						CHANNELS 3 Zrotation Yrotation Xrotation
						End Site
						{
							OFFSET 0.000000 0.000000 0.000000
						}
					}
				}
				JOINT lclavicle
				{
					OFFSET 0.071702 0.114000 -0.018898
					CHANNELS 3 Zrotation Yrotation Xrotation
					JOINT lshoulder
					{
						OFFSET 0.122921 0.045205 -0.019046
						CHANNELS 3 Zrotation Yrotation Xrotation
						JOINT lelbow
						{
							OFFSET 0.255332 -0.015649 -0.022946
							CHANNELS 3 Zrotation Yrotation Xrotation
							JOINT lwrist
							{
								OFFSET 0.265709 0.012698 -0.007375
								CHANNELS 3 Zrotation Yrotation Xrotation
								End Site
								{
									OFFSET 0.000000 0.000000 0.000000
								}
							}
						}
					}
				}
				JOINT rclavicle
				{
					OFFSET -0.082954 0.112472 -0.023707
					CHANNELS 3 Zrotation Yrotation Xrotation
					JOINT rshoulder
					{
						OFFSET -0.113228 0.046853 -0.008472
						CHANNELS 3 Zrotation Yrotation Xrotation
						JOINT relbow
						{
							OFFSET -0.260127 -0.014369 -0.031269
							CHANNELS 3 Zrotation Yrotation Xrotation
							JOINT rwrist
							{
								OFFSET -0.269108 0.006794 -0.006027
								CHANNELS 3 Zrotation Yrotation Xrotation
								End Site
								{
									OFFSET 0.000000 0.000000 0.000000
								}
							}
						}
					}
				}
			}
		}
	}
}
MOTION
Frames: 16
Frame Time: 0.033333
-1.324190 0.304919 1.027605 97.488538 -3.406492 82.371565 -6.110764 0.365814 4.129707 -6.624979 -13.757203 -0.067982 0.657309 5.220732 -5.411444 0.000000 -0.000000 0.000000 -4.068788 -2.451119 -11.376329 -2.336078 -4.144787 56.524869 4.626095 -14.400516 -3.763998 0.000000 -0.000000 0.000000 -6.138920 0.860183 18.754018 -0.485345 -0.596693 -2.434822 -0.174878 -1.793203 2.979846 4.901034 9.621318 -18.356934 -0.831606 0.637446 6.422609 -27.339800 0.175343 -0.437293 -46.510523 -8.938204 7.341927 5.420703 -22.250110 3.041123 -1.502796 -5.554368 -5.207171 31.902109 2.154233 -1.145286 48.487691 5.707852 12.591590 -13.441985 14.118811 -17.232783 2.787352 3.234096 -8.173934 
-1.303263 0.307573 1.027960 98.746422 -2.711188 81.561251 -5.753324 1.123036 6.183687 -6.274689 -15.134127 0.678253 1.542354 5.378059 -5.765425 0.000000 -0.000000 0.000000 -4.060981 -2.006884 -13.329450 -2.429320 -4.734866 52.916131 4.989605 -14.643348 -5.084388 0.000000 -0.000000 0.000000 -5.888265 -0.007597 19.134318 -0.289014 -0.830555 -2.420797 -0.048863 -2.438214 2.983740 5.190967 9.297044 -17.851746 -0.737872 0.272855 6.729767 -27.422456 -1.103998 -0.493240 -45.736613 -10.475492 6.974196 5.706533 -22.199054 1.556068 -0.734121 -5.411907 -5.184463 31.659757 2.242648 -1.451163 47.877040 5.476251 12.658401 -14.145851 16.314262 -17.554341 2.354348 3.487662 -8.290157 
-1.283097 0.309460 1.027879 99.811884 -2.052902 80.944470 -5.596377 1.479071 8.024976 -5.685430 -16.154274 1.158006 2.755070 5.305025 -5.552641 0.000000 -0.000000 0.000000 -4.142758 -1.721444 -15.118221 -2.444039 -5.110465 48.412329 5.605316 -14.422863 -6.195133 0.000000 -0.000000 0.000000 -5.512708 -0.911930 19.525273 -0.193229 -1.256648 -2.372802 0.037507 -2.796704 2.703919 5.273707 9.416987 -17.077414 -0.397101 0.575555 6.902872 -27.307898 -2.124109 -0.560867 -45.100933 -11.820470 6.647592 5.955293 -22.526616 0.109434 -0.016391 -5.247954 -5.213234 31.331024 2.575416 -1.457166 47.713592 5.343859 12.729134 -15.211120 18.349399 -18.238465 2.037232 3.747328 -8.643665 
-1.263710 0.310819 1.027523 100.288793 -1.201213 80.626804 -5.340928 1.885355 9.298521 -4.923577 -16.784635 1.828437 4.013129 6.146211 -5.972049 0.000000 -0.000000 0.000000 -3.930454 -1.497093 -16.894684 -2.275687 -5.284816 43.184415 6.101954 -13.853894 -7.413526 0.000000 -0.000000 0.000000 -4.882599 -1.485975 19.715622 0.004790 -1.318599 -2.459798 0.241386 -3.326498 2.694624 5.282636 9.502312 -16.714396 -0.227421 0.706242 7.231680 -27.315884 -3.385719 -0.641397 -44.751992 -13.106984 6.452140 6.341465 -22.774476 -1.032895 0.534514 -5.282792 -4.952840 30.933832 2.798468 -1.665935 47.449091 5.570604 12.769550 -16.143931 20.342840 -18.467018 1.819046 3.770403 -8.554428 
-1.244069 0.311570 1.027006 100.689917 -0.571201 80.638773 -4.891378 2.337228 10.343011 -4.504794 -17.358927 2.537082 4.827303 6.390977 -6.811793 0.000000 -0.000000 0.000000 -4.007312 -1.765933 -18.639559 -2.026518 -5.730817 37.727054 6.619969 -13.049047 -7.542775 0.000000 -0.000000 0.000000 -4.420526 -2.023984 19.769089 0.150991 -1.662569 -2.809040 0.455057 -3.686231 2.446890 5.433500 9.470851 -16.003206 -0.031803 0.887379 7.788774 -27.134819 -3.993576 -0.642491 -44.588574 -14.098461 6.334630 6.429981 -23.454523 -1.673754 1.045824 -5.494421 -4.992795 30.606316 3.008886 -1.759281 47.147527 6.051002 12.810696 -16.556274 21.830041 -18.431823 1.865188 4.036977 -8.362974 
-1.223840 0.311807 1.026819 100.654120 -0.129950 80.636689 -4.116724 2.845149 11.565109 -4.455350 -17.681978 3.031158 4.566280 6.484249 -8.161749 0.000000 -0.000000 0.000000 -4.061816 -1.962747 -19.717134 -1.675566 -6.550756 31.402949 7.226341 -12.425883 -6.749444 0.000000 -0.000000 0.000000 -4.253263 -2.755552 20.110184 0.195332 -1.935682 -3.345986 0.759705 -3.893633 2.213915 5.707943 9.721669 -15.453122 0.093903 1.244720 8.188408 -26.783020 -4.155908 -0.907498 -44.777217 -14.799187 6.400774 6.405632 -23.944864 -1.847617 1.327593 -5.558969 -4.936731 30.747962 3.342690 -1.921383 46.796605 6.939847 13.017070 -16.946914 22.795163 -18.396188 1.827698 3.861844 -7.858182 
-1.202465 0.311882 1.025600 100.521801 0.105958 80.800082 -3.505067 3.330974 12.964136 -4.399005 -18.044650 2.987224 4.419971 6.386438 -9.451815 0.000000 -0.000000 0.000000 -4.137721 -2.652701 -20.496459 -0.935623 -7.293696 24.906867 8.006377 -11.628615 -5.624009 0.000000 -0.000000 0.000000 -4.130183 -2.796465 19.848755 0.290057 -2.100743 -3.440669 1.104718 -4.327908 1.951278 5.544486 9.988369 -14.927231 0.266969 1.452541 8.723311 -26.601366 -4.767841 -0.736640 -44.820923 -15.607772 6.525375 6.182282 -24.204206 -1.945266 1.537371 -6.054389 -4.853335 30.724057 3.681412 -2.111585 46.760970 7.846223 12.806884 -17.014547 22.804218 -18.547575 1.694906 3.937166 -7.851562 
-1.180473 0.311709 1.023132 100.340283 0.283107 81.313750 -3.117363 3.680382 13.893090 -4.168848 -18.076511 3.114323 4.222693 6.184604 -10.396004 0.000000 -0.000000 0.000000 -4.031685 -3.292097 -21.081613 -0.335200 -8.632002 18.198197 9.177548 -11.072654 -4.191512 0.000000 -0.000000 0.000000 -3.781279 -2.823925 19.197118 0.270505 -2.386513 -3.578818 1.273936 -4.692794 1.760875 5.505740 10.352431 -14.319180 0.459084 1.785518 9.009469 -26.374942 -5.329730 -0.323982 -44.883859 -16.213782 6.777072 5.867048 -24.600313 -1.630102 1.423393 -6.231906 -4.207193 30.856468 3.971643 -2.234571 46.791053 8.672979 12.580852 -17.073725 22.643942 -18.601162 1.739250 3.739155 -7.557600 
-1.158374 0.311455 1.019731 99.888979 0.273118 81.965948 -3.135023 3.686689 14.598345 -4.030671 -18.123663 3.388269 4.540851 6.836936 -11.634573 0.000000 -0.000000 0.000000 -3.762627 -3.479677 -21.798557 -0.159415 -9.443584 12.326500 10.629488 -10.901630 -2.094065 0.000000 -0.000000 0.000000 -3.458014 -3.057556 18.744226 0.098372 -2.391810 -4.104878 1.291041 -4.810623 1.608317 5.468676 10.588663 -13.853115 0.522290 2.068258 9.626116 -26.020714 -5.736949 -0.151564 -45.116735 -16.667530 7.278943 5.378700 -24.714815 -0.895079 1.106962 -6.755565 -3.544161 30.869063 4.241619 -2.120021 46.991851 9.334587 12.748349 -16.895178 22.284561 -18.498816 1.746838 3.791333 -7.410938 
-1.134091 0.311318 1.015788 99.642436 -0.081739 82.604675 -3.387379 4.087192 15.359012 -3.833045 -18.314505 4.016525 4.883640 6.863855 -12.814612 0.000000 -0.000000 0.000000 -3.655937 -3.838064 -22.354485 -0.231304 -9.814853 8.020265 11.436765 -10.887233 -1.207345 0.000000 -0.000000 0.000000 -3.359962 -3.249754 18.362997 -0.088247 -2.689850 -4.511596 1.191962 -4.766126 1.336718 5.553354 10.411835 -13.820156 0.597815 2.068510 10.164092 -25.880070 -5.982123 -0.012651 -45.073777 -16.845031 7.545001 4.630289 -24.955419 0.347492 0.472614 -6.430505 -2.493506 31.055982 4.383922 -2.065623 47.390371 9.540678 12.651104 -16.903660 22.066112 -18.414910 2.008332 3.886321 -6.989708 
-1.108925 0.311101 1.011461 99.443645 -0.281889 82.988717 -3.473176 4.265351 16.443553 -3.694743 -18.369815 4.541041 5.295755 7.114043 -13.557161 0.000000 -0.000000 0.000000 -3.585022 -3.822219 -22.497837 -0.189729 -10.867638 5.704415 11.872447 -11.408300 -0.705727 0.000000 -0.000000 0.000000 -3.094503 -3.689460 18.409945 -0.272538 -2.589024 -4.968281 1.013992 -4.825694 1.181274 5.723021 10.309298 -13.531531 0.733658 2.267589 10.343621 -25.890179 -6.139050 0.102606 -45.016960 -17.037606 7.812724 4.058881 -25.352495 1.707240 -0.171742 -6.671738 -1.647590 30.929469 4.405570 -2.072336 47.940465 9.539191 12.805051 -16.574220 21.979057 -18.216407 2.228367 4.022582 -7.061062 
-1.081440 0.310463 1.007052 99.779109 -0.241966 83.289055 -3.107454 4.345322 17.830599 -3.666352 -18.978969 5.157419 5.281043 7.666037 -14.488945 0.000000 -0.000000 0.000000 -3.392250 -3.743047 -22.570277 -0.218611 -12.635635 6.352692 10.891288 -12.980738 -0.958073 0.000000 -0.000000 0.000000 -2.782769 -4.047130 17.829482 -0.148271 -2.618299 -4.364803 1.010900 -5.285042 1.217716 5.729270 10.254714 -13.940397 0.628177 2.361640 10.010758 -26.193000 -6.788869 0.832350 -44.834566 -17.272226 7.694428 4.167403 -25.503546 1.950464 -0.557725 -6.544716 -1.384495 30.829664 4.898973 -1.947652 47.992925 9.473734 12.673361 -16.271578 21.767718 -18.028963 2.542304 4.101850 -7.139591 
-1.052495 0.309241 1.003720 100.332291 -0.286356 83.833496 -2.726210 4.740265 18.972828 -3.655512 -18.476826 5.594730 5.521569 7.761767 -14.196228 0.000000 -0.000000 0.000000 -3.029269 -3.635638 -22.297337 -0.399571 -14.209379 8.131214 9.568227 -14.199709 -1.329803 0.000000 -0.000000 0.000000 -2.585891 -4.722110 17.381773 0.012846 -2.923276 -4.317603 0.963189 -5.563653 1.153830 5.978689 9.881059 -14.027322 0.574081 2.484531 10.027579 -26.511949 -6.853195 1.395068 -44.736894 -17.302091 7.331125 4.153764 -25.157083 2.308829 -1.098772 -6.589988 -1.340584 30.980403 4.939451 -1.940026 48.178238 9.238571 12.697640 -16.031050 21.514393 -17.574075 2.870710 4.111245 -7.020496 
-1.022301 0.307357 1.001225 101.219977 -0.436839 84.834197 -2.723875 4.541240 19.229930 -3.383815 -18.335950 7.016197 5.267412 7.931823 -13.562855 0.000000 -0.000000 0.000000 -2.307005 -3.438719 -21.637827 -0.899998 -14.467432 9.873793 8.013153 -14.511389 -1.508885 0.000000 -0.000000 0.000000 -2.476609 -5.016477 16.347339 0.321213 -3.568833 -4.088107 1.046191 -6.158663 1.174486 5.735342 10.042116 -14.208598 0.464040 3.245491 9.659895 -26.614383 -6.819753 1.895369 -45.109269 -17.056203 7.295090 4.358718 -24.667707 2.510919 -1.473904 -6.549163 -1.575132 31.114966 4.767686 -2.100373 48.409121 9.155214 12.710611 -15.821021 21.191583 -17.036662 3.217909 3.785221 -7.257064 
-0.991258 0.305247 1.002922 101.899819 -0.483304 86.062552 -2.815559 3.571491 18.734167 -3.439843 -18.531501 8.627661 6.114200 5.731815 -7.946641 0.000000 -0.000000 0.000000 -1.793542 -3.364462 -21.028585 -1.106723 -14.449937 8.595293 6.262856 -15.746874 3.358051 0.000000 -0.000000 0.000000 -2.131076 -5.400708 15.516260 0.667639 -4.101753 -3.871166 1.178584 -6.621908 0.648126 5.716953 9.143047 -14.343155 0.740872 4.359335 9.423706 -27.465452 -6.186895 2.505266 -44.950497 -17.019793 7.119291 4.516295 -23.665063 3.014525 -2.137605 -6.415874 -1.429660 31.588082 4.249332 -2.126684 48.347659 8.940245 13.230167 -15.849085 20.634137 -17.527691 3.304521 3.733136 -7.521209 
-0.958335 0.302604 1.008791 101.248723 -0.031767 86.523678 -2.180386 3.499944 18.093603 -3.515488 -17.706230 13.128572 2.898083 7.503127 -8.466384 0.000000 -0.000000 0.000000 -1.198470 -2.575674 -20.347388 -0.409475 -13.223214 10.160462 6.320368 -13.977460 5.334745 0.000000 -0.000000 0.000000 -1.391217 -5.893840 15.714639 0.980553 -3.873510 -4.094855 1.241623 -6.387245 0.761238 5.170629 9.756984 -15.765320 0.547193 4.506917 9.200394 -27.928236 -5.570227 2.049521 -45.578210 -16.093693 7.421801 4.955690 -22.856826 2.494351 -2.120771 -6.378994 -0.873767 31.739921 3.879529 -2.307257 48.255382 9.199177 12.986904 -15.040990 19.581243 -17.000320 3.189229 3.873415 -7.454298 
